<svg xmlns="http://www.w3.org/2000/svg" viewBox="0 0 323.67 323.67"><defs><style>.cls-1{fill:#252f3f;}.cls-2{fill:#fff;}.cls-3{fill:none;stroke:#fff;stroke-miterlimit:10;stroke-width:8px;}</style></defs><title>logo</title><g id="Layer_2" data-name="Layer 2"><rect class="cls-1" width="323.67" height="323.67"/></g><g id="Layer_1" data-name="Layer 1"><g id="Layer_2-2" data-name="Layer 2"><g id="Layer_1-2" data-name="Layer 1-2"><path class="cls-2" d="M157.5,10C239,10,305,76,305,157.33S239,304.67,157.5,304.67,10,238.7,10,157.33,76,10,157.5,10m0-10A157.34,157.34,0,1,0,268.86,46.08,157.34,157.34,0,0,0,157.5,0Z" transform="translate(3.67 3.67)"/><circle class="cls-2" cx="161.17" cy="161" r="128.5"/><path class="cls-2" d="M157.5,29.33A126.69,126.69,0,1,1,67,66.84a128,128,0,0,1,90.5-37.51m0-1a129,129,0,1,0,129,129A129,129,0,0,0,157.5,28.33Z" transform="translate(3.67 3.67)"/><polygon class="cls-1" points="170.92 290 169.5 257.91 146.13 257.87 147.55 290 170.92 290"/><path class="cls-1" d="M126,163c-11.72,63.28,8.23,97,22,107.69l7.61,2.43c15.44-1.34,25.8-39.09,25.8-96.75l-8.1.44c-4.68,38.61-3.49,64.7-14.74,65.49a8.23,8.23,0,0,1-3-.35c-12.36-3.78-10.35-32.46-11.14-76.47Z" transform="translate(3.67 3.67)"/><path class="cls-1" d="M206.73,168.4l14.18-14.19L235.09,140l14.18-14.18,6.35-6.34a40.27,40.27,0,0,0,.18-56.94L240.27,47a40.26,40.26,0,0,0-56.94.12l-.06.06-89.89,90a40.27,40.27,0,0,0-.18,56.94l15.53,15.53a40.28,40.28,0,0,0,57-.14l0,0,26.87-26.87Z" transform="translate(3.67 3.67)"/><line class="cls-3" x1="255.44" y1="128.27" x2="220.08" y2="92.91"/><line class="cls-3" x1="240.01" y1="143.7" x2="204.65" y2="108.34"/><line class="cls-3" x1="189.22" y1="123.77" x2="224.58" y2="159.13"/><line class="cls-3" x1="209.15" y1="174.56" x2="173.79" y2="139.2"/><line class="cls-3" x1="158.36" y1="154.63" x2="193.72" y2="189.99"/><path class="cls-2" d="M128,156c-1.12,9.65-2.46,19.11-3.18,28.6a259,259,0,0,0-.22,28.26,112.77,112.77,0,0,0,4.12,27.56A61.91,61.91,0,0,0,142,265.07a42.41,42.41,0,0,1-10.69-10,56.11,56.11,0,0,1-4.13-6.2,72.81,72.81,0,0,1-3.3-6.69,89,89,0,0,1-6.51-28.93c-.6-9.88.62-19.72,2.41-29.29.92-4.79,2-9.54,3.35-14.21A128.43,128.43,0,0,1,128,156Z" transform="translate(3.67 3.67)"/></g></g></g></svg>