<?xml version="1.0" encoding="utf-8"?>
<!-- Generator: Adobe Illustrator 21.1.0, SVG Export Plug-In . SVG Version: 6.00 Build 0)  -->
<svg version="1.1" xmlns="http://www.w3.org/2000/svg" xmlns:xlink="http://www.w3.org/1999/xlink" x="0px" y="0px"
	 viewBox="0 0 315 314.7" style="enable-background:new 0 0 315 314.7;" xml:space="preserve">
<style type="text/css">
	.st0{fill:#23282D;}
	.st1{fill:#FFFFFF;}
</style>
<g id="Layer_2_1_">
	<rect y="-0.5" class="st0" width="315.7" height="315.7"/>
</g>
<g id="Layer_1">
	<g id="Layer_2">
		<g id="Layer_1-2">
			<path class="st1" d="M260.6,54C204-2.5,112.3-2.5,55.7,54c-56.5,56.5-56.5,148.1,0,204.6c27.2,27.2,64,42.4,102.4,42.4
				c79.9,0.1,144.7-64.6,144.8-144.5C303,118.1,287.8,81.2,260.6,54z M158.2,291.8c-75,0-135.6-60.7-135.6-135.5
				S83.2,20.8,158.2,20.8s135.6,60.7,135.6,135.5S233.1,291.8,158.2,291.8z M165.7,204.3c-5,5-11.3,8.5-18.2,10
				c1.1,11.2,3.5,18.2,9,19.9c0.9,0.3,1.8,0.4,2.8,0.3c7.6-0.5,9-13.7,11-34.7L165.7,204.3z M259.3,94.3c0,0.3,0,0.7,0,1
				c0,0.3,0,0.5,0,0.7c-0.2,9.6-4.1,18.7-10.9,25.5l-1.5,1.5l-32-31.9l-5.2,5.2l31.9,31.9l-9,9l-32-31.9l-5.2,5.2l31.9,31.9l-9,9
				l-31.9-31.9l-5.2,5.2l31.9,31.9l-9,9l-31.9-31.9l-5.2,5.2l31.9,32l-9,9l-31.9-31.9l-5.2,5.2l21.1,21.1l6.1,6.1l4.8,4.8l-5,5.1
				c-1.3,31.5-6.3,54.8-13.7,65.7l0.6,17.9v0.5v0.5c65.3-4.7,114.5-61.6,109.7-126.9C275.1,128.8,269.2,110.5,259.3,94.3z
				 M145.3,273.3l-0.6-17.3c-4.6-5.1-9.3-12.7-12.9-23c0-0.1-0.1-0.2-0.1-0.4c-1.8-6.3-2.9-12.7-3.4-19.2c-0.2-2-0.3-4.1-0.4-6.1
				c-0.4-8.7-0.3-17.3,0.2-26c0.5-6.6,1.3-13.1,2.1-19.7c0.3-2.2,0.5-4.4,0.8-6.6c-1.7,4.1-3.2,8.3-4.4,12.6
				c-1.2,4.3-2.2,8.7-3.1,13.1c-1.6,8.8-2.8,17.9-2.2,26.9c0.1,0.9,0.1,1.9,0.2,2.9c-3-1.7-5.8-3.7-8.2-6.2L99,190.1
				c-14.4-14.5-14.3-37.9,0.2-52.4l82.7-82.7c4.5-4.5,10.1-7.8,16.3-9.5l0.7-0.2l0.8-0.2C138.2,22.3,69.9,53.6,47.1,115
				s8.4,129.7,69.8,152.6c9.2,3.4,18.7,5.7,28.5,6.7v-0.5L145.3,273.3z"/>
		</g>
	</g>
</g>
</svg>
